999
dxflib 2.2.0.0
  0
SECTION
  2
HEADER
  9
$ACADVER
  1
AC1015
  9
$HANDSEED
  5
FFFF
  9
$DIMASZ
 40
2.5
  9
$PLIMMIN
 10
0.0
 20
0.0
  9
$DIMEXE
 40
1.25
  9
$DIMGAP
 40
0.625
  9
$PLIMMAX
 10
210.0
 20
297.0
  9
$INSUNITS
 70
4
  9
$DIMSTYLE
  2
Standard
  9
$DIMEXO
 40
0.625
  9
$DIMTXT
 40
2.5
  0
ENDSEC
  0
SECTION
  2
TABLES
  0
TABLE
  2
VPORT
  5
8
100
AcDbSymbolTable
 70
1
  0
VPORT
  5
30
100
AcDbSymbolTableRecord
100
AcDbViewportTableRecord
  2
*Active
 70
0
 10
0.0
 20
0.0
 11
1.0
 21
1.0
 12
286.3055555555554861
 22
148.5
 13
0.0
 23
0.0
 14
10.0
 24
10.0
 15
10.0
 25
10.0
 16
0.0
 26
0.0
 36
1.0
 17
0.0
 27
0.0
 37
0.0
 40
297.0
 41
1.92798353909465
 42
50.0
 43
0.0
 44
0.0
 50
0.0
 51
0.0
 71
0
 72
100
 73
1
 74
3
 75
1
 76
1
 77
0
 78
0
281
0
 65
1
110
0.0
120
0.0
130
0.0
111
1.0
121
0.0
131
0.0
112
0.0
122
1.0
132
0.0
 79
0
146
0.0
  0
ENDTAB
  0
TABLE
  2
LTYPE
  5
5
100
AcDbSymbolTable
 70
21
  0
LTYPE
  5
14
100
AcDbSymbolTableRecord
100
AcDbLinetypeTableRecord
  2
ByBlock
 70
0
  3

 72
65
 73
0
 40
0.0
  0
LTYPE
  5
15
100
AcDbSymbolTableRecord
100
AcDbLinetypeTableRecord
  2
ByLayer
 70
0
  3

 72
65
 73
0
 40
0.0
  0
LTYPE
  5
16
100
AcDbSymbolTableRecord
100
AcDbLinetypeTableRecord
  2
CONTINUOUS
 70
0
  3
Solid line
 72
65
 73
0
 40
0.0
  0
LTYPE
  5
31
100
AcDbSymbolTableRecord
100
AcDbLinetypeTableRecord
  2
DOT
 70
0
  3
Dot . . . . . . . . . . . . . . . . . . . . . .
 72
65
 73
2
 40
6.3499999999999996
 49
0.0
 74
0
 49
-6.3499999999999996
 74
0
  0
LTYPE
  5
32
100
AcDbSymbolTableRecord
100
AcDbLinetypeTableRecord
  2
DOT2
 70
0
  3
Dot (.5x) .....................................
 72
65
 73
2
 40
3.1749999999999998
 49
0.0
 74
0
 49
-3.1749999999999998
 74
0
  0
LTYPE
  5
33
100
AcDbSymbolTableRecord
100
AcDbLinetypeTableRecord
  2
DOTX2
 70
0
  3
Dot (2x) .  .  .  .  .  .  .  .  .  .  .  .  .
 72
65
 73
2
 40
12.6999999999999993
 49
0.0
 74
0
 49
-12.6999999999999993
 74
0
  0
LTYPE
  5
34
100
AcDbSymbolTableRecord
100
AcDbLinetypeTableRecord
  2
DASHED
 70
0
  3
Dashed __ __ __ __ __ __ __ __ __ __ __ __ __ _
 72
65
 73
2
 40
19.0500000000000007
 49
12.6999999999999993
 74
0
 49
-6.3499999999999996
 74
0
  0
LTYPE
  5
35
100
AcDbSymbolTableRecord
100
AcDbLinetypeTableRecord
  2
DASHED2
 70
0
  3
Dashed (.5x) _ _ _ _ _ _ _ _ _ _ _ _ _ _ _ _ _
 72
65
 73
2
 40
9.5250000000000004
 49
6.3499999999999996
 74
0
 49
-3.1749999999999998
 74
0
  0
LTYPE
  5
36
100
AcDbSymbolTableRecord
100
AcDbLinetypeTableRecord
  2
DASHEDX2
 70
0
  3
Dashed (2x) ____  ____  ____  ____  ____  ___
 72
65
 73
2
 40
38.1000000000000014
 49
25.3999999999999986
 74
0
 49
-12.6999999999999993
 74
0
  0
LTYPE
  5
37
100
AcDbSymbolTableRecord
100
AcDbLinetypeTableRecord
  2
DASHDOT
 70
0
  3
Dash dot __ . __ . __ . __ . __ . __ . __ . __
 72
65
 73
4
 40
25.3999999999999986
 49
12.6999999999999993
 74
0
 49
-6.3499999999999996
 74
0
 49
0.0
 74
0
 49
-6.3499999999999996
 74
0
  0
LTYPE
  5
38
100
AcDbSymbolTableRecord
100
AcDbLinetypeTableRecord
  2
DASHDOT2
 70
0
  3
Dash dot (.5x) _._._._._._._._._._._._._._._.
 72
65
 73
4
 40
12.6999999999999993
 49
6.3499999999999996
 74
0
 49
-3.1749999999999998
 74
0
 49
0.0
 74
0
 49
-3.1749999999999998
 74
0
  0
LTYPE
  5
39
100
AcDbSymbolTableRecord
100
AcDbLinetypeTableRecord
  2
DASHDOTX2
 70
0
  3
Dash dot (2x) ____  .  ____  .  ____  .  ___
 72
65
 73
4
 40
50.7999999999999972
 49
25.3999999999999986
 74
0
 49
-12.6999999999999993
 74
0
 49
0.0
 74
0
 49
-12.6999999999999993
 74
0
  0
LTYPE
  5
3A
100
AcDbSymbolTableRecord
100
AcDbLinetypeTableRecord
  2
DIVIDE
 70
0
  3
Divide ____ . . ____ . . ____ . . ____ . . ____
 72
65
 73
6
 40
31.75
 49
12.6999999999999993
 74
0
 49
-6.3499999999999996
 74
0
 49
0.0
 74
0
 49
-6.3499999999999996
 74
0
 49
0.0
 74
0
 49
-6.3499999999999996
 74
0
  0
LTYPE
  5
3B
100
AcDbSymbolTableRecord
100
AcDbLinetypeTableRecord
  2
DIVIDE2
 70
0
  3
Divide (.5x) __..__..__..__..__..__..__..__.._
 72
65
 73
6
 40
15.875
 49
6.3499999999999996
 74
0
 49
-3.1749999999999998
 74
0
 49
0.0
 74
0
 49
-3.1749999999999998
 74
0
 49
0.0
 74
0
 49
-3.1749999999999998
 74
0
  0
LTYPE
  5
3C
100
AcDbSymbolTableRecord
100
AcDbLinetypeTableRecord
  2
DIVIDEX2
 70
0
  3
Divide (2x) ________  .  .  ________  .  .  _
 72
65
 73
6
 40
63.5
 49
25.3999999999999986
 74
0
 49
-12.6999999999999993
 74
0
 49
0.0
 74
0
 49
-12.6999999999999993
 74
0
 49
0.0
 74
0
 49
-12.6999999999999993
 74
0
  0
LTYPE
  5
3D
100
AcDbSymbolTableRecord
100
AcDbLinetypeTableRecord
  2
CENTER
 70
0
  3
Center ____ _ ____ _ ____ _ ____ _ ____ _ ____
 72
65
 73
4
 40
50.7999999999999972
 49
31.75
 74
0
 49
-6.3499999999999996
 74
0
 49
6.3499999999999996
 74
0
 49
-6.3499999999999996
 74
0
  0
LTYPE
  5
3E
100
AcDbSymbolTableRecord
100
AcDbLinetypeTableRecord
  2
CENTER2
 70
0
  3
Center (.5x) ___ _ ___ _ ___ _ ___ _ ___ _ ___
 72
65
 73
4
 40
28.5749999999999993
 49
19.0500000000000007
 74
0
 49
-3.1749999999999998
 74
0
 49
3.1749999999999998
 74
0
 49
-3.1749999999999998
 74
0
  0
LTYPE
  5
3F
100
AcDbSymbolTableRecord
100
AcDbLinetypeTableRecord
  2
CENTERX2
 70
0
  3
Center (2x) ________  __  ________  __  _____
 72
65
 73
4
 40
101.5999999999999943
 49
63.5
 74
0
 49
-12.6999999999999993
 74
0
 49
12.6999999999999993
 74
0
 49
-12.6999999999999993
 74
0
  0
LTYPE
  5
40
100
AcDbSymbolTableRecord
100
AcDbLinetypeTableRecord
  2
BORDER
 70
0
  3
Border __ __ . __ __ . __ __ . __ __ . __ __ .
 72
65
 73
6
 40
44.4500000000000028
 49
12.6999999999999993
 74
0
 49
-6.3499999999999996
 74
0
 49
12.6999999999999993
 74
0
 49
-6.3499999999999996
 74
0
 49
0.0
 74
0
 49
-6.3499999999999996
 74
0
  0
LTYPE
  5
41
100
AcDbSymbolTableRecord
100
AcDbLinetypeTableRecord
  2
BORDER2
 70
0
  3
Border (.5x) __.__.__.__.__.__.__.__.__.__.__.
 72
65
 73
6
 40
22.2250000000000014
 49
6.3499999999999996
 74
0
 49
-3.1749999999999998
 74
0
 49
6.3499999999999996
 74
0
 49
-3.1749999999999998
 74
0
 49
0.0
 74
0
 49
-3.1749999999999998
 74
0
  0
LTYPE
  5
42
100
AcDbSymbolTableRecord
100
AcDbLinetypeTableRecord
  2
BORDERX2
 70
0
  3
Border (2x) ____  ____  .  ____  ____  .  ___
 72
65
 73
6
 40
88.9000000000000057
 49
25.3999999999999986
 74
0
 49
-12.6999999999999993
 74
0
 49
25.3999999999999986
 74
0
 49
-12.6999999999999993
 74
0
 49
0.0
 74
0
 49
-12.6999999999999993
 74
0
  0
ENDTAB
  0
TABLE
  2
LAYER
  5
2
100
AcDbSymbolTable
 70
2
  0
LAYER
  5
10
100
AcDbSymbolTableRecord
100
AcDbLayerTableRecord
  2
0
 70
0
 62
7
  6
CONTINUOUS
290
1
370
0
390
F
  0
LAYER
  5
43
100
AcDbSymbolTableRecord
100
AcDbLayerTableRecord
  2
COMPONENT0
 70
0
 62
7
  6
CONTINUOUS
290
1
370
-3
390
F
  0
ENDTAB
  0
TABLE
  2
STYLE
  5
3
100
AcDbSymbolTable
 70
1
  0
STYLE
  5
11
100
AcDbSymbolTableRecord
100
AcDbTextStyleTableRecord
  2
Standard
 70
0
 40
0.0
 41
0.75
 50
0.0
 71
0
 42
2.5
  3
txt
  4

  0
ENDTAB
  0
TABLE
  2
VIEW
  5
6
100
AcDbSymbolTable
 70
0
  0
ENDTAB
  0
TABLE
  2
UCS
  5
7
100
AcDbSymbolTable
 70
0
  0
ENDTAB
  0
TABLE
  2
APPID
  5
9
100
AcDbSymbolTable
 70
1
  0
APPID
  5
12
100
AcDbSymbolTableRecord
100
AcDbRegAppTableRecord
  2
ACAD
 70
0
  0
ENDTAB
  0
TABLE
  2
DIMSTYLE
  5
A
100
AcDbSymbolTable
 70
1
100
AcDbDimStyleTable
 71
0
  0
DIMSTYLE
105
27
100
AcDbSymbolTableRecord
100
AcDbDimStyleTableRecord
  2
Standard
 41
2.5
 42
0.625
 43
3.75
 44
1.25
 70
0
 73
0
 74
0
 77
1
 78
8
140
2.5
141
2.5
143
0.03937007874016
147
0.625
171
3
172
1
271
2
272
2
274
3
278
44
283
0
284
8
340
11
  0
ENDTAB
  0
TABLE
  2
BLOCK_RECORD
  5
1
100
AcDbSymbolTable
 70
1
  0
BLOCK_RECORD
  5
1F
100
AcDbSymbolTableRecord
100
AcDbBlockTableRecord
  2
*Model_Space
340
22
  0
BLOCK_RECORD
  5
1B
100
AcDbSymbolTableRecord
100
AcDbBlockTableRecord
  2
*Paper_Space
340
1E
  0
BLOCK_RECORD
  5
23
100
AcDbSymbolTableRecord
100
AcDbBlockTableRecord
  2
*Paper_Space0
340
26
  0
ENDTAB
  0
ENDSEC
  0
SECTION
  2
BLOCKS
  0
BLOCK
  5
20
100
AcDbEntity
  8
0
100
AcDbBlockBegin
  2
*Model_Space
 70
0
 10
0.0
 20
0.0
 30
0.0
  3
*Model_Space
  1

  0
ENDBLK
  5
21
100
AcDbEntity
  8
0
100
AcDbBlockEnd
  0
BLOCK
  5
1C
100
AcDbEntity
 67
1
  8
0
100
AcDbBlockBegin
  2
*Paper_Space
 70
0
 10
0.0
 20
0.0
 30
0.0
  3
*Paper_Space
  1

  0
ENDBLK
  5
1D
100
AcDbEntity
 67
1
  8
0
100
AcDbBlockEnd
  0
BLOCK
  5
24
100
AcDbEntity
  8
0
100
AcDbBlockBegin
  2
*Paper_Space0
 70
0
 10
0.0
 20
0.0
 30
0.0
  3
*Paper_Space0
  1

  0
ENDBLK
  5
25
100
AcDbEntity
  8
0
100
AcDbBlockEnd
  0
ENDSEC
  0
SECTION
  2
ENTITIES
  0
LWPOLYLINE
  5
44
  8
COMPONENT0
 62
256
370
-1
  6
ByLayer
100
AcDbEntity
100
AcDbPolyline
 90
9
 70
0
 10
17.3023467290352002
 20
-792.9988629504609889
 10
17.3023467290353992
 20
-872.9988629504620121
 10
60.8021467292309978
 20
-872.9988629504620121
 10
62.8021467292294986
 20
-866.9988629504620121
 10
157.3023467291239967
 20
-866.9988629504680375
 10
157.3023467291239967
 20
-798.9988629504659912
 10
62.8021467292294986
 20
-798.9988629504599658
 10
60.8021467292305005
 20
-792.9988629504599658
 10
17.3023467290352002
 20
-792.9988629504609889
  0
LWPOLYLINE
  5
45
  8
COMPONENT0
 62
256
370
-1
  6
ByLayer
100
AcDbEntity
100
AcDbPolyline
 90
5
 70
0
 10
28.3731624719881985
 20
-803.9988629504609889
 10
28.3731624719895983
 20
-806.9988629504609889
 10
26.3731624719897013
 20
-806.9988629504609889
 10
26.3731624719883015
 20
-803.9988629504609889
 10
28.3731624719881985
 20
-803.9988629504609889
  0
LWPOLYLINE
  5
46
  8
COMPONENT0
 62
256
370
-1
  6
ByLayer
100
AcDbEntity
100
AcDbPolyline
 90
5
 70
0
 10
41.2308133431099009
 20
-806.9988629504620121
 10
41.2308133431084016
 20
-803.9988629504620121
 10
43.2308133431083021
 20
-803.9988629504599658
 10
43.2308133431098014
 20
-806.9988629504599658
 10
41.2308133431099009
 20
-806.9988629504620121
  0
LWPOLYLINE
  5
47
  8
COMPONENT0
 62
256
370
-1
  6
ByLayer
100
AcDbEntity
100
AcDbPolyline
 90
5
 70
0
 10
26.3731624719897013
 20
-858.9988629498980117
 10
28.3731624719895983
 20
-858.9988629498969885
 10
28.3731624719893993
 20
-861.9988629498969885
 10
26.3731624719894988
 20
-861.9988629498980117
 10
26.3731624719897013
 20
-858.9988629498980117
  0
LWPOLYLINE
  5
48
  8
COMPONENT0
 62
256
370
-1
  6
ByLayer
100
AcDbEntity
100
AcDbPolyline
 90
5
 70
0
 10
43.2308133431098014
 20
-858.9988629498969885
 10
43.2308133431096024
 20
-861.9988629498969885
 10
41.2308133431097019
 20
-861.9988629498980117
 10
41.2308133431099009
 20
-858.9988629498980117
 10
43.2308133431098014
 20
-858.9988629498969885
  0
LWPOLYLINE
  5
49
  8
COMPONENT0
 62
256
370
-1
  6
ByLayer
100
AcDbEntity
100
AcDbPolyline
 90
5
 70
0
 10
39.2308133387076978
 20
-795.9988629504620121
 10
39.2308133387096021
 20
-814.9988629504599658
 10
30.373162474161699
 20
-814.9988629504599658
 10
30.3731624741599013
 20
-795.9988629504620121
 10
39.2308133387076978
 20
-795.9988629504620121
  0
LWPOLYLINE
  5
4A
  8
COMPONENT0
 62
256
370
-1
  6
ByLayer
100
AcDbEntity
100
AcDbPolyline
 90
5
 70
0
 10
30.3731624719890014
 20
-869.9988629498990349
 10
30.3731624719904012
 20
-850.9988629498959654
 10
39.2308133431106967
 20
-850.9988629498969885
 10
39.2308133431091974
 20
-869.9988629498990349
 10
30.3731624719890014
 20
-869.9988629498990349
  0
LWPOLYLINE
  5
4B
  8
COMPONENT0
 62
256
370
-1
  6
ByLayer
100
AcDbEntity
100
AcDbPolyline
 90
25
 70
0
 10
47.8881019333202005
 20
-834.5437033379190552
 10
47.5022124285246008
 20
-834.3838626714540396
 10
47.1708415984110019
 20
-834.1295928904789889
 10
46.9165718174337982
 20
-833.7982220603649921
 10
46.7567311509693013
 20
-833.412332555568014
 10
46.7022124762878974
 20
-832.9982221081270382
 10
46.7567311509696992
 20
-832.584111660687995
 10
46.9165718174340967
 20
-832.1982221558910169
 10
47.1708415984099005
 20
-831.8668513257759969
 10
47.5022124285246008
 20
-831.6125815448000367
 10
47.8881019333211029
 20
-831.4527408783369538
 10
48.3022123807621995
 20
-831.3982222036549956
 10
48.7163228282012
 20
-831.4527408783360443
 10
49.1022123329980005
 20
-831.6125815448009462
 10
49.4335831631119973
 20
-831.8668513257770201
 10
49.6878529440877017
 20
-832.1982221558910169
 10
49.8476936105515023
 20
-832.5841116606859487
 10
49.9022122852346968
 20
-832.9982221081270382
 10
49.8476936105510973
 20
-833.4123325555659676
 10
49.6878529440874033
 20
-833.7982220603639689
 10
49.4335831631130986
 20
-834.1295928904789889
 10
49.1022123329980005
 20
-834.3838626714540396
 10
48.7163228282001981
 20
-834.543703337918032
 10
48.3022123807608992
 20
-834.5982220126020366
 10
47.8881019333202005
 20
-834.5437033379190552
  0
LWPOLYLINE
  5
4C
  8
COMPONENT0
 62
256
370
-1
  6
ByLayer
100
AcDbEntity
100
AcDbPolyline
 90
25
 70
0
 10
64.9165714863243011
 20
-833.7982219009099936
 10
64.7567308198597971
 20
-833.4123323961140386
 10
64.7022121451783931
 20
-832.9982219486739723
 10
64.756730819860195
 20
-832.5841115012340197
 10
64.916571486324699
 20
-832.1982219964370415
 10
65.1708412673006023
 20
-831.8668511663209983
 10
65.5022120974150965
 20
-831.6125813853459476
 10
65.8881016022116057
 20
-831.4527407188829784
 10
66.3022120496526952
 20
-831.3982220441999971
 10
66.7163224970916957
 20
-831.4527407188819552
 10
67.1022120018885033
 20
-831.6125813853459476
 10
67.4335828320026991
 20
-831.8668511663220215
 10
67.6878526129782045
 20
-832.1982219964370415
 10
67.847693279441998
 20
-832.5841115012340197
 10
67.9022119541252067
 20
-832.9982219486720396
 10
67.8476932794416001
 20
-833.4123323961140386
 10
67.6878526129779061
 20
-833.7982219009099936
 10
67.4335828320035944
 20
-834.1295927310239904
 10
67.1022120018885033
 20
-834.3838625119999506
 10
66.7163224970916957
 20
-834.5437031784640567
 10
66.302212049651402
 20
-834.5982218531460148
 10
65.8881016022116057
 20
-834.5437031784649662
 10
65.5022120974150965
 20
-834.3838625119999506
 10
65.1708412673014976
 20
-834.1295927310229672
 10
64.9165714863243011
 20
-833.7982219009099936
  0
LWPOLYLINE
  5
4D
  8
COMPONENT0
 62
256
370
-1
  6
ByLayer
100
AcDbEntity
100
AcDbPolyline
 90
5
 70
0
 10
144.2308133390199885
 20
-823.4988629504620121
 10
144.2308133390160094
 20
-842.4988629504639448
 10
135.3731624751480069
 20
-842.4988629504620121
 10
135.3731624751470122
 20
-823.4988629504609889
 10
144.2308133390199885
 20
-823.4988629504620121
  0
LWPOLYLINE
  5
4E
  8
COMPONENT0
 62
256
370
-1
  6
ByLayer
100
AcDbEntity
100
AcDbPolyline
 90
5
 70
0
 10
148.2308133389890088
 20
-836.4988629504630353
 10
148.2308133389890088
 20
-839.4988629504630353
 10
146.2308133389890088
 20
-839.4988629504630353
 10
146.2308133389890088
 20
-836.4988629504630353
 10
148.2308133389890088
 20
-836.4988629504630353
  0
LWPOLYLINE
  5
4F
  8
COMPONENT0
 62
256
370
-1
  6
ByLayer
100
AcDbEntity
100
AcDbPolyline
 90
5
 70
0
 10
133.3731624751480069
 20
-839.4988629504630353
 10
131.3731624751480069
 20
-839.4988629504630353
 10
131.3731624751480069
 20
-836.4988629504630353
 10
133.3731624751480069
 20
-836.4988629504630353
 10
133.3731624751480069
 20
-839.4988629504630353
  0
LWPOLYLINE
  5
50
  8
COMPONENT0
 62
256
370
-1
  6
ByLayer
100
AcDbEntity
100
AcDbPolyline
 90
5
 70
0
 10
131.3731624751480069
 20
-829.4988629504630353
 10
131.3731624751470122
 20
-826.4988629504630353
 10
133.3731624751470122
 20
-826.4988629504620121
 10
133.3731624751480069
 20
-829.4988629504620121
 10
131.3731624751480069
 20
-829.4988629504630353
  0
LWPOLYLINE
  5
51
  8
COMPONENT0
 62
256
370
-1
  6
ByLayer
100
AcDbEntity
100
AcDbPolyline
 90
5
 70
0
 10
146.2308133389890088
 20
-829.4988629504630353
 10
146.2308133389890088
 20
-826.4988629504630353
 10
148.2308133389890088
 20
-826.4988629504630353
 10
148.2308133389900036
 20
-829.4988629504630353
 10
146.2308133389890088
 20
-829.4988629504630353
  0
LWPOLYLINE
  5
52
  8
COMPONENT0
 62
256
370
-1
  6
ByLayer
100
AcDbEntity
100
AcDbPolyline
 90
25
 70
0
 10
21.5773467438404012
 20
-796.7431241033090146
 10
21.9270591284417016
 20
-796.5982684906770146
 10
22.3023467438403991
 20
-796.5488609387959968
 10
22.6776343592390006
 20
-796.5982684906770146
 10
23.027346743840301
 20
-796.7431241033090146
 10
23.3276515765608998
 20
-796.9735561060759892
 10
23.5580835793277998
 20
-797.2738609387960196
 10
23.7029391919595014
 20
-797.6235733233979772
 10
23.7523467438403983
 20
-797.9988609387960423
 10
23.7029391919595014
 20
-798.3741485541950169
 10
23.5580835793277998
 20
-798.7238609387959514
 10
23.3276515765608998
 20
-799.0241657715170049
 10
23.0273467438404005
 20
-799.2545977742839796
 10
22.6776343592391001
 20
-799.3994533869149564
 10
22.3023467438403991
 20
-799.4488609387959741
 10
21.9270591284417016
 20
-799.3994533869149564
 10
21.5773467438404012
 20
-799.2545977742839796
 10
21.2770419111198983
 20
-799.0241657715170049
 10
21.0466099083528988
 20
-798.7238609387959514
 10
20.9017542957213003
 20
-798.3741485541950169
 10
20.8523467438403998
 20
-797.9988609387960423
 10
20.9017542957213003
 20
-797.6235733233979772
 10
21.0466099083528988
 20
-797.2738609387960196
 10
21.2770419111198983
 20
-796.9735561060759892
 10
21.5773467438404012
 20
-796.7431241033090146
  0
LWPOLYLINE
  5
53
  8
COMPONENT0
 62
256
370
-1
  6
ByLayer
100
AcDbEntity
100
AcDbPolyline
 90
25
 70
0
 10
150.9017537743129935
 20
-832.6235752569380111
 10
151.0466093869449935
 20
-832.2738628723369629
 10
151.2770413897119965
 20
-831.9735580396160231
 10
151.5773462224319985
 20
-831.7431260368499579
 10
151.927058607034013
 20
-831.598270424217958
 10
152.3023462224319928
 20
-831.5488628723370539
 10
152.6776338378309958
 20
-831.598270424217958
 10
153.0273462224319871
 20
-831.7431260368499579
 10
153.3276510551530123
 20
-831.9735580396160231
 10
153.5580830579199869
 20
-832.2738628723369629
 10
153.7029386705509921
 20
-832.6235752569380111
 10
153.7523462224320099
 20
-832.9988628723369857
 10
153.7029386705509921
 20
-833.3741504877359603
 10
153.5580830579199869
 20
-833.7238628723370084
 10
153.3276510551530123
 20
-834.0241677050579483
 10
153.0273462224319871
 20
-834.2545997078250366
 10
152.6776338378309958
 20
-834.3994553204560134
 10
152.3023462224319928
 20
-834.4488628723370311
 10
151.927058607034013
 20
-834.3994553204560134
 10
151.5773462224319985
 20
-834.2545997078250366
 10
151.2770413897119965
 20
-834.0241677050579483
 10
151.0466093869449935
 20
-833.7238628723370084
 10
150.9017537743129935
 20
-833.3741504877359603
 10
150.8523462224320042
 20
-832.9988628723369857
 10
150.9017537743129935
 20
-832.6235752569380111
  0
LWPOLYLINE
  5
54
  8
COMPONENT0
 62
256
370
-1
  6
ByLayer
100
AcDbEntity
100
AcDbPolyline
 90
25
 70
0
 10
21.5773457007773004
 20
-866.7431241028930344
 10
21.9270580853786008
 20
-866.5982684902610345
 10
22.3023457007772983
 20
-866.5488609383800167
 10
22.6776333161758998
 20
-866.5982684902610345
 10
23.0273457007772002
 20
-866.7431241028930344
 10
23.327650533497799
 20
-866.9735561056600091
 10
23.5580825362646991
 20
-867.2738609383800394
 10
23.7029381488964006
 20
-867.6235733229819971
 10
23.7523457007773011
 20
-867.9988609383799485
 10
23.7029381488964006
 20
-868.3741485537790368
 10
23.5580825362646991
 20
-868.7238609383799712
 10
23.327650533497799
 20
-869.0241657711010248
 10
23.0273457007772997
 20
-869.2545977738679994
 10
22.6776333161759993
 20
-869.3994533864999994
 10
22.3023457007772983
 20
-869.448860938379994
 10
21.9270580853786008
 20
-869.3994533864999994
 10
21.5773457007773004
 20
-869.2545977738679994
 10
21.2770408680568011
 20
-869.0241657711010248
 10
21.0466088652898016
 20
-868.7238609383799712
 10
20.9017532526581995
 20
-868.3741485537790368
 10
20.852345700777299
 20
-867.9988609383799485
 10
20.9017532526581995
 20
-867.6235733229819971
 10
21.0466088652898016
 20
-867.2738609383800394
 10
21.2770408680568011
 20
-866.9735561056600091
 10
21.5773457007773004
 20
-866.7431241028930344
  0
ENDSEC
  0
SECTION
  2
OBJECTS
  0
DICTIONARY
  5
C
100
AcDbDictionary
280
0
281
1
  3
ACAD_GROUP
350
D
  3
ACAD_LAYOUT
350
1A
  3
ACAD_MLINESTYLE
350
17
  3
ACAD_PLOTSETTINGS
350
19
  3
ACAD_PLOTSTYLENAME
350
E
  3
AcDbVariableDictionary
350
55
  0
DICTIONARY
  5
D
100
AcDbDictionary
280
0
281
1
  0
ACDBDICTIONARYWDFLT
  5
E
100
AcDbDictionary
281
1
  3
Normal
350
F
100
AcDbDictionaryWithDefault
340
F
  0
ACDBPLACEHOLDER
  5
F
  0
DICTIONARY
  5
17
100
AcDbDictionary
280
0
281
1
  3
Standard
350
18
  0
MLINESTYLE
  5
18
100
AcDbMlineStyle
  2
STANDARD
 70
0
  3

 62
256
 51
90.0
 52
90.0
 71
2
 49
0.5
 62
256
  6
BYLAYER
 49
-0.5
 62
256
  6
BYLAYER
  0
DICTIONARY
  5
19
100
AcDbDictionary
280
0
281
1
  0
DICTIONARY
  5
1A
100
AcDbDictionary
281
1
  3
Layout1
350
1E
  3
Layout2
350
26
  3
Model
350
22
  0
LAYOUT
  5
1E
100
AcDbPlotSettings
  1

  2
C:\Program Files\AutoCAD 2002\plotters\DWF ePlot (optimized for plotting).pc3
  4

  6

 40
0.0
 41
0.0
 42
0.0
 43
0.0
 44
0.0
 45
0.0
 46
0.0
 47
0.0
 48
0.0
 49
0.0
140
0.0
141
0.0
142
1.0
143
1.0
 70
688
 72
0
 73
0
 74
5
  7

 75
16
147
1.0
148
0.0
149
0.0
100
AcDbLayout
  1
Layout1
 70
1
 71
1
 10
0.0
 20
0.0
 11
420.0
 21
297.0
 12
0.0
 22
0.0
 32
0.0
 14
100000000000000000000.0
 24
100000000000000000000.0
 34
100000000000000000000.0
 15
-100000000000000000000.0
 25
-100000000000000000000.0
 35
-100000000000000000000.0
146
0.0
 13
0.0
 23
0.0
 33
0.0
 16
1.0
 26
0.0
 36
0.0
 17
0.0
 27
1.0
 37
0.0
 76
0
330
1B
  0
LAYOUT
  5
22
100
AcDbPlotSettings
  1

  2
C:\Program Files\AutoCAD 2002\plotters\DWF ePlot (optimized for plotting).pc3
  4

  6

 40
0.0
 41
0.0
 42
0.0
 43
0.0
 44
0.0
 45
0.0
 46
0.0
 47
0.0
 48
0.0
 49
0.0
140
0.0
141
0.0
142
1.0
143
1.0
 70
1712
 72
0
 73
0
 74
0
  7

 75
0
147
1.0
148
0.0
149
0.0
100
AcDbLayout
  1
Model
 70
1
 71
0
 10
0.0
 20
0.0
 11
12.0
 21
9.0
 12
0.0
 22
0.0
 32
0.0
 14
0.0
 24
0.0
 34
0.0
 15
0.0
 25
0.0
 35
0.0
146
0.0
 13
0.0
 23
0.0
 33
0.0
 16
1.0
 26
0.0
 36
0.0
 17
0.0
 27
1.0
 37
0.0
 76
0
330
1F
  0
LAYOUT
  5
26
100
AcDbPlotSettings
  1

  2
C:\Program Files\AutoCAD 2002\plotters\DWF ePlot (optimized for plotting).pc3
  4

  6

 40
0.0
 41
0.0
 42
0.0
 43
0.0
 44
0.0
 45
0.0
 46
0.0
 47
0.0
 48
0.0
 49
0.0
140
0.0
141
0.0
142
1.0
143
1.0
 70
688
 72
0
 73
0
 74
5
  7

 75
16
147
1.0
148
0.0
149
0.0
100
AcDbLayout
  1
Layout2
 70
1
 71
2
 10
0.0
 20
0.0
 11
12.0
 21
9.0
 12
0.0
 22
0.0
 32
0.0
 14
0.0
 24
0.0
 34
0.0
 15
0.0
 25
0.0
 35
0.0
146
0.0
 13
0.0
 23
0.0
 33
0.0
 16
1.0
 26
0.0
 36
0.0
 17
0.0
 27
1.0
 37
0.0
 76
0
330
23
  0
DICTIONARY
  5
55
100
AcDbDictionary
281
1
  3
DIMASSOC
350
57
  3
HIDETEXT
350
56
  0
DICTIONARYVAR
  5
56
100
DictionaryVariables
280
0
  1
2
  0
DICTIONARYVAR
  5
57
100
DictionaryVariables
280
0
  1
1
  0
ENDSEC
  0
EOF
